<svg width="206" height="206" viewBox="0 0 206 206" fill="none" xmlns="http://www.w3.org/2000/svg">
<path d="M9 179.75V155.833C9 151.135 10.2101 146.722 12.6302 142.594C15.0503 138.465 18.3958 135.333 22.6667 133.198C29.9271 129.497 38.1128 126.365 47.224 123.802C56.3351 121.24 66.3715 119.958 77.3333 119.958C88.2951 119.958 98.3316 121.24 107.443 123.802C116.554 126.365 124.74 129.497 132 133.198C136.271 135.333 139.616 138.465 142.036 142.594C144.457 146.722 145.667 151.135 145.667 155.833V179.75H9ZM26.0833 162.667H128.583V155.833C128.583 154.267 128.192 152.844 127.409 151.562C126.626 150.281 125.594 149.285 124.313 148.573C119.188 146.01 112.603 143.448 104.56 140.885C96.5165 138.323 87.441 137.042 77.3333 137.042C67.2257 137.042 58.1502 138.323 50.1068 140.885C42.0634 143.448 35.4792 146.01 30.3542 148.573C29.0729 149.285 28.0408 150.281 27.2578 151.562C26.4748 152.844 26.0833 154.267 26.0833 155.833V162.667ZM77.3333 111.417C67.9375 111.417 59.8941 108.071 53.2031 101.38C46.5122 94.6892 43.1667 86.6458 43.1667 77.25H41.0312C39.75 77.25 38.7179 76.8585 37.9349 76.0755C37.1519 75.2925 36.7604 74.2604 36.7604 72.9792C36.7604 71.6979 37.1519 70.6658 37.9349 69.8828C38.7179 69.0998 39.75 68.7083 41.0312 68.7083H43.1667C43.1667 62.3021 44.7326 56.5365 47.8646 51.4115C50.9965 46.2865 55.125 42.2292 60.25 39.2396V47.3542C60.25 48.6354 60.6415 49.6675 61.4245 50.4505C62.2075 51.2335 63.2396 51.625 64.5208 51.625C65.8021 51.625 66.8342 51.2335 67.6172 50.4505C68.4002 49.6675 68.7917 48.6354 68.7917 47.3542V35.8229C70.0729 35.3958 71.4254 35.0755 72.849 34.862C74.2726 34.6484 75.7674 34.5417 77.3333 34.5417C78.8993 34.5417 80.3941 34.6484 81.8177 34.862C83.2413 35.0755 84.5938 35.3958 85.875 35.8229V47.3542C85.875 48.6354 86.2665 49.6675 87.0495 50.4505C87.8325 51.2335 88.8646 51.625 90.1458 51.625C91.4271 51.625 92.4592 51.2335 93.2422 50.4505C94.0252 49.6675 94.4167 48.6354 94.4167 47.3542V39.2396C99.5417 42.2292 103.67 46.2865 106.802 51.4115C109.934 56.5365 111.5 62.3021 111.5 68.7083H113.635C114.917 68.7083 115.949 69.0998 116.732 69.8828C117.515 70.6658 117.906 71.6979 117.906 72.9792C117.906 74.2604 117.515 75.2925 116.732 76.0755C115.949 76.8585 114.917 77.25 113.635 77.25H111.5C111.5 86.6458 108.155 94.6892 101.464 101.38C94.7726 108.071 86.7292 111.417 77.3333 111.417ZM77.3333 94.3333C82.0312 94.3333 86.053 92.6606 89.3984 89.3151C92.7439 85.9696 94.4167 81.9479 94.4167 77.25H60.25C60.25 81.9479 61.9227 85.9696 65.2682 89.3151C68.6137 92.6606 72.6354 94.3333 77.3333 94.3333ZM141.396 128.5L140.115 122.094C139.26 121.809 138.442 121.489 137.659 121.133C136.876 120.777 136.128 120.243 135.417 119.531L129.438 121.667L125.167 113.979L129.865 109.708V104.583L125.167 100.312L129.438 92.625L135.417 94.7604C135.986 94.191 136.698 93.6927 137.552 93.2656C138.406 92.8385 139.26 92.4826 140.115 92.1979L141.396 85.7917H149.938L151.219 92.1979C152.073 92.4826 152.927 92.8385 153.781 93.2656C154.635 93.6927 155.347 94.191 155.917 94.7604L161.896 92.625L166.167 100.312L161.469 104.583V109.708L166.167 113.979L161.896 121.667L155.917 119.531C155.205 120.243 154.457 120.777 153.674 121.133C152.891 121.489 152.073 121.809 151.219 122.094L149.938 128.5H141.396ZM145.667 113.552C147.375 113.552 148.87 112.911 150.151 111.63C151.432 110.349 152.073 108.854 152.073 107.146C152.073 105.438 151.432 103.943 150.151 102.661C148.87 101.38 147.375 100.74 145.667 100.74C143.958 100.74 142.464 101.38 141.182 102.661C139.901 103.943 139.26 105.438 139.26 107.146C139.26 108.854 139.901 110.349 141.182 111.63C142.464 112.911 143.958 113.552 145.667 113.552ZM161.042 85.7917L159.333 76.8229C158.052 76.3958 156.878 75.862 155.81 75.2214C154.742 74.5807 153.781 73.8333 152.927 72.9792L143.958 75.9688L137.979 65.7188L145.24 59.3125C144.955 58.6007 144.813 58.0312 144.813 57.6042V54.1875C144.813 53.7604 144.955 53.191 145.24 52.4792L137.979 46.0729L143.958 35.8229L152.927 38.8125C153.781 37.9583 154.742 37.2109 155.81 36.5703C156.878 35.9297 158.052 35.3958 159.333 34.9688L161.042 26H173L174.708 34.9688C175.99 35.3958 177.164 35.9297 178.232 36.5703C179.299 37.2109 180.26 37.9583 181.115 38.8125L190.083 35.8229L196.062 46.0729L188.802 52.4792C189.087 53.191 189.229 53.7604 189.229 54.1875V57.6042C189.229 58.0312 189.087 58.6007 188.802 59.3125L196.062 65.7188L190.083 75.9688L181.115 72.9792C180.26 73.8333 179.299 74.5807 178.232 75.2214C177.164 75.862 175.99 76.3958 174.708 76.8229L173 85.7917H161.042ZM167.021 66.5729C170.01 66.5729 172.537 65.5408 174.602 63.4766C176.666 61.4123 177.698 58.8854 177.698 55.8958C177.698 52.9063 176.666 50.3793 174.602 48.3151C172.537 46.2509 170.01 45.2188 167.021 45.2188C164.031 45.2188 161.504 46.2509 159.44 48.3151C157.376 50.3793 156.344 52.9063 156.344 55.8958C156.344 58.8854 157.376 61.4123 159.44 63.4766C161.504 65.5408 164.031 66.5729 167.021 66.5729Z" fill="#4A0A0A"/>
</svg>
