<svg width="205" height="206" viewBox="0 0 205 206" fill="none" xmlns="http://www.w3.org/2000/svg">
<mask id="mask0_115_275" style="mask-type:alpha" maskUnits="userSpaceOnUse" x="0" y="0" width="205" height="206">
<rect y="0.375" width="205" height="205" fill="#D9D9D9"/>
</mask>
<g mask="url(#mask0_115_275)">
<path d="M85.4173 179.75V163.521C85.4173 160.531 86.1647 157.72 87.6595 155.086C89.1543 152.452 91.1829 150.352 93.7454 148.786C100.294 144.943 107.163 142.024 114.352 140.031C121.541 138.038 128.98 137.042 136.667 137.042C144.355 137.042 151.793 138.038 158.982 140.031C166.172 142.024 173.041 144.943 179.589 148.786C182.152 150.352 184.18 152.452 185.675 155.086C187.17 157.72 187.917 160.531 187.917 163.521V179.75H85.4173ZM17.084 179.75V77.25L85.4173 26L131.329 60.5938C120.652 61.875 111.754 66.5373 104.636 74.5807C97.518 82.6241 93.959 92.0556 93.959 102.875C93.959 107.288 94.564 111.452 95.7741 115.367C96.9842 119.282 98.7281 122.948 101.006 126.365C98.1586 127.503 95.4182 128.678 92.7845 129.888C90.1508 131.098 87.5527 132.486 84.9902 134.052C79.8652 137.042 75.8079 141.206 72.8184 146.544C69.8288 151.883 68.334 157.542 68.334 163.521V179.75H17.084ZM136.667 128.5C129.549 128.5 123.499 126.009 118.516 121.026C113.534 116.043 111.042 109.993 111.042 102.875C111.042 95.757 113.534 89.7066 118.516 84.724C123.499 79.7413 129.549 77.25 136.667 77.25C143.785 77.25 149.836 79.7413 154.818 84.724C159.801 89.7066 162.292 95.757 162.292 102.875C162.292 109.993 159.801 116.043 154.818 121.026C149.836 126.009 143.785 128.5 136.667 128.5Z" fill="#4A0A0A"/>
</g>
</svg>
