<svg width="205" height="206" viewBox="0 0 205 206" fill="none" xmlns="http://www.w3.org/2000/svg">
<mask id="mask0_115_267" style="mask-type:alpha" maskUnits="userSpaceOnUse" x="0" y="0" width="205" height="206">
<rect y="0.375" width="205" height="205" fill="#D9D9D9"/>
</mask>
<g mask="url(#mask0_115_267)">
<path d="M102.5 64.4375C98.3715 64.4375 94.8481 62.9783 91.9297 60.0599C89.0113 57.1415 87.5521 53.6181 87.5521 49.4896C87.5521 45.3611 89.0113 41.8377 91.9297 38.9193C94.8481 36.0009 98.3715 34.5417 102.5 34.5417C106.628 34.5417 110.152 36.0009 113.07 38.9193C115.989 41.8377 117.448 45.3611 117.448 49.4896C117.448 53.6181 115.989 57.1415 113.07 60.0599C110.152 62.9783 106.628 64.4375 102.5 64.4375ZM85.4167 171.208V128.5H76.875V90.0625C76.875 85.3646 78.5477 81.3429 81.8932 77.9974C85.2387 74.6519 89.2604 72.9792 93.9583 72.9792H111.042C115.74 72.9792 119.761 74.6519 123.107 77.9974C126.452 81.3429 128.125 85.3646 128.125 90.0625V128.5H119.583V171.208H85.4167Z" fill="#4A0A0A"/>
</g>
</svg>
