<svg width="40" height="41" viewBox="0 0 40 41" fill="none" xmlns="http://www.w3.org/2000/svg">
<path d="M5 12.9706C5 8.63729 8.51284 5.12445 12.8462 5.12445L20 5.12445V20.1245H5L5 12.9706Z" fill="#FFA6A6"/>
<path d="M27.1538 5.12445C31.4872 5.12445 35 8.63729 35 12.9706L35 20.1245L20 20.1245L20 5.12445L27.1538 5.12445Z" fill="#FFA6A6"/>
<path d="M35 27.2783C35 31.6116 31.4872 35.1245 27.1538 35.1244L20 35.1244L20 20.1244L35 20.1245L35 27.2783Z" fill="#FFA6A6"/>
<path d="M12.8462 35.1245C8.51284 35.1245 5 31.6116 5 27.2783L5 20.1245L20 20.1245L20 35.1245L12.8462 35.1245Z" fill="#FFA6A6"/>
<path fill-rule="evenodd" clip-rule="evenodd" d="M20.2308 5.12445H14.6923V20.1245H20V20.1245L5 20.1245V27.2783C5 31.6116 8.51285 35.1245 12.8462 35.1245H14.9231C19.2564 35.1245 22.7692 31.6116 22.7692 27.2783L22.7692 20.1245L27.5 20.1245C31.6421 20.1245 35 16.7666 35 12.6245C35 8.48233 31.6421 5.12446 27.5 5.12446L20.2308 5.12446V5.12445Z" fill="#DF0000"/>
</svg>
